<?xml version="1.0" encoding="UTF-8"?><svg xmlns="http://www.w3.org/2000/svg" viewBox="0 0 64 64"><g id="a"/><g id="b"/><g id="c"/><g id="d"/><g id="e"/><g id="f"/><g id="g"/><g id="h"/><g id="i"/><g id="j"/><g id="k"/><g id="l"/><g id="m"/><g id="n"><g><path d="M32,60c-15.4395,0-28-12.5605-28-28S16.5605,4,32,4s28,12.5605,28,28-12.5605,28-28,28Zm0-54c-14.3364,0-26,11.6636-26,26s11.6636,26,26,26,26-11.6636,26-26S46.3369,6,32,6Z"/><path d="M52.376,28h-8.376c-.3145,0-.6113-.1484-.7998-.3999l-1.7998-2.3999c-.5645-.7515-1.4609-1.2002-2.4004-1.2002h-14c-.9395,0-1.8369,.4487-2.4004,1.2002l-1.7998,2.3999c-.1885,.2515-.4849,.3999-.7998,.3999H11.624c-.3071,0-.5972-.1411-.7866-.3828-.1895-.2412-.2578-.5566-.1846-.855,2.415-9.8691,11.1934-16.7622,21.3472-16.7622s18.9326,6.8931,21.3477,16.7622c.0723,.2983,.0049,.6138-.1846,.855-.1904,.2417-.4805,.3828-.7871,.3828Zm-7.876-2h6.5596c-2.5977-8.3052-10.2598-14-19.0596-14s-16.4624,5.6948-19.0601,14h6.5601l1.5-2c.939-1.2524,2.4346-2,4-2h14c1.5654,0,3.0605,.7476,4,2l1.5,2Z"/><path d="M28,53.6133c-.063,0-.127-.0059-.1899-.0181-9.1753-1.7739-16.2329-9.1895-17.561-18.4531-.0415-.2871,.0439-.5781,.2339-.7969,.1899-.2192,.4658-.3452,.7559-.3452h.7612c9.374,0,17,7.626,17,17v1.6133c0,.2983-.1333,.5815-.3638,.7715-.1802,.1489-.4058,.2285-.6362,.2285Zm-15.5728-17.6074c1.521,7.4829,7.1919,13.4575,14.5728,15.3579v-.3638c0-8.1279-6.4985-14.7671-14.5728-14.9941Z"/><path d="M36,53.6133c-.2305,0-.4561-.0796-.6367-.2285-.2295-.1899-.3633-.4731-.3633-.7715v-1.6133c0-9.374,7.626-17,17-17h.7617c.29,0,.5654,.126,.7559,.3452,.1895,.2188,.2754,.5098,.2344,.7969-1.3291,9.2637-8.3867,16.6792-17.5625,18.4531-.0625,.0122-.126,.0181-.1895,.0181Zm15.5732-17.6074c-8.0742,.2271-14.5732,6.8662-14.5732,14.9941v.3638c7.3809-1.9004,13.0518-7.875,14.5732-15.3579Z"/><path d="M32,40c-3.3086,0-6-2.6914-6-6s2.6914-6,6-6,6,2.6914,6,6-2.6914,6-6,6Zm0-10c-2.2056,0-4,1.7944-4,4s1.7944,4,4,4,4-1.7944,4-4-1.7939-4-4-4Z"/></g></g><g id="o"/><g id="p"/><g id="q"/><g id="r"/><g id="s"/><g id="t"/><g id="u"/><g id="v"/><g id="w"/><g id="x"/><g id="y"/><g id="a`"/><g id="aa"/><g id="ab"/><g id="ac"/><g id="ad"/><g id="ae"/><g id="af"/></svg>