<?xml version="1.0" encoding="UTF-8"?><svg xmlns="http://www.w3.org/2000/svg" viewBox="0 0 64 64"><g id="a"/><g id="b"/><g id="c"/><g id="d"/><g id="e"/><g id="f"/><g id="g"/><g id="h"><g><path d="M36,12h-8c-2.7568,0-5-2.2432-5-5v-2c0-.5522,.4478-1,1-1h16c.5522,0,1,.4478,1,1v2c0,2.7568-2.2432,5-5,5Zm-11-6v1c0,1.6543,1.3457,3,3,3h8c1.6543,0,3-1.3457,3-3v-1h-14Z"/><path d="M41,60H23c-4.9624,0-9-4.0376-9-9V13c0-4.9624,4.0376-9,9-9h18c4.9624,0,9,4.0376,9,9V51c0,4.9624-4.0376,9-9,9ZM23,6c-3.8599,0-7,3.1401-7,7V51c0,3.8599,3.1401,7,7,7h18c3.8599,0,7-3.1401,7-7V13c0-3.8599-3.1401-7-7-7H23Z"/><rect x="25" y="36" width="14" height="2"/><path d="M39,54h-14c-.5522,0-1-.4478-1-1V21c0-.5522,.4478-1,1-1h14c.5522,0,1,.4478,1,1V53c0,.5522-.4478,1-1,1Zm-13-2h12V22h-12v30Z"/><path d="M34,30h-4c-.5522,0-1-.4478-1-1v-2c0-1.6543,1.3457-3,3-3s3,1.3457,3,3v2c0,.5522-.4478,1-1,1Zm-3-2h2v-1c0-.5513-.4487-1-1-1s-1,.4487-1,1v1Z"/><path d="M35,34h-6c-.5522,0-1-.4478-1-1v-4c0-.5522,.4478-1,1-1h6c.5522,0,1,.4478,1,1v4c0,.5522-.4478,1-1,1Zm-5-2h4v-2h-4v2Z"/><path d="M34,46h-4c-.5522,0-1-.4478-1-1v-2c0-1.6543,1.3457-3,3-3,.772,0,1.5054,.2925,2.0645,.8237,.4004,.3804,.417,1.0132,.0366,1.4136-.3809,.3999-1.0132,.417-1.4136,.0366-.186-.1768-.4302-.2739-.6875-.2739-.5513,0-1,.4487-1,1v1h3c.5522,0,1,.4478,1,1s-.4478,1-1,1Z"/><path d="M35,50h-6c-.5522,0-1-.4478-1-1v-4c0-.5522,.4478-1,1-1h6c.5522,0,1,.4478,1,1v4c0,.5522-.4478,1-1,1Zm-5-2h4v-2h-4v2Z"/><path d="M37,18h-10c-.5522,0-1-.4478-1-1s.4478-1,1-1h10c.5522,0,1,.4478,1,1s-.4478,1-1,1Z"/></g></g><g id="i"/><g id="j"/><g id="k"/><g id="l"/><g id="m"/><g id="n"/><g id="o"/><g id="p"/><g id="q"/><g id="r"/><g id="s"/><g id="t"/><g id="u"/><g id="v"/><g id="w"/><g id="x"/><g id="y"/><g id="a`"/><g id="aa"/><g id="ab"/><g id="ac"/><g id="ad"/><g id="ae"/><g id="af"/></svg>