<?xml version="1.0" encoding="UTF-8"?><svg xmlns="http://www.w3.org/2000/svg" viewBox="0 0 64 64"><g id="a"/><g id="b"/><g id="c"><g><rect x="5" y="47" width="54" height="2"/><path d="M59,53H5c-.5522,0-1-.4478-1-1V30c0-.2998,.1348-.584,.3667-.7739L26.3667,11.2261c.1787-.146,.4023-.2261,.6333-.2261H59c.5522,0,1,.4478,1,1V52c0,.5522-.4478,1-1,1Zm-53-2H58V13H27.3569L6,30.4741v20.5259Z"/><path d="M55,31H11.3169c-.4229,0-.7998-.2656-.9419-.6636-.1421-.3984-.0186-.8428,.3086-1.1104L27.7944,15.2261c.1787-.146,.4023-.2261,.6333-.2261h26.5723c.5522,0,1,.4478,1,1v14c0,.5522-.4478,1-1,1Zm-40.8818-2H54v-12H28.7847l-14.6665,12Z"/><path d="M53,37h-6c-.5522,0-1-.4478-1-1s.4478-1,1-1h6c.5522,0,1,.4478,1,1s-.4478,1-1,1Z"/></g></g><g id="d"/><g id="e"/><g id="f"/><g id="g"/><g id="h"/><g id="i"/><g id="j"/><g id="k"/><g id="l"/><g id="m"/><g id="n"/><g id="o"/><g id="p"/><g id="q"/><g id="r"/><g id="s"/><g id="t"/><g id="u"/><g id="v"/><g id="w"/><g id="x"/><g id="y"/><g id="a`"/><g id="aa"/><g id="ab"/><g id="ac"/><g id="ad"/><g id="ae"/><g id="af"/></svg>