<?xml version="1.0" encoding="UTF-8"?><svg xmlns="http://www.w3.org/2000/svg" viewBox="0 0 64 64"><g id="a"/><g id="b"/><g id="c"/><g id="d"/><g id="e"/><g id="f"/><g id="g"/><g id="h"/><g id="i"/><g id="j"/><g id="k"/><g id="l"/><g id="m"/><g id="n"/><g id="o"/><g id="p"/><g id="q"/><g id="r"/><g id="s"><path d="M47,52H25c-.2651,0-.5195-.1055-.707-.293l-3.707-3.707h-7.5859c-.5522,0-1-.4473-1-1v-7h-2v3c0,.5527-.4478,1-1,1H5c-.5522,0-1-.4473-1-1v-12c0-.5527,.4478-1,1-1h4c.5522,0,1,.4473,1,1v3h2v-7c0-.5527,.4478-1,1-1h4.4648l3.7031-5.5547c.1855-.2783,.4976-.4453,.832-.4453h7v-2h-3c-.5522,0-1-.4473-1-1v-4c0-.5527,.4478-1,1-1h12c.5527,0,1,.4473,1,1v4c0,.5527-.4473,1-1,1h-3v2h9c.334,0,.6465,.167,.832,.4453l3.7031,5.5547h2.4648c.5527,0,1,.4473,1,1v6h2v-3c0-.5527,.4473-1,1-1h4c.5527,0,1,.4473,1,1v14c0,.5527-.4473,1-1,1h-4c-.5527,0-1-.4473-1-1v-3h-2v6c0,.2656-.1055,.5195-.293,.707l-4,4c-.1875,.1875-.4414,.293-.707,.293Zm-21.5859-2h21.1719l3.4141-3.4141v-6.5859c0-.5527,.4473-1,1-1h4c.5527,0,1,.4473,1,1v3h2v-12h-2v3c0,.5527-.4473,1-1,1h-4c-.5527,0-1-.4473-1-1v-6h-2c-.334,0-.6465-.167-.832-.4453l-3.7031-5.5547h-9.4648c-.5527,0-1-.4473-1-1v-4c0-.5527,.4473-1,1-1h3v-2h-10v2h3c.5522,0,1,.4473,1,1v4c0,.5527-.4478,1-1,1h-7.4648l-3.7031,5.5547c-.1855,.2783-.4976,.4453-.832,.4453h-4v7c0,.5527-.4478,1-1,1h-4c-.5522,0-1-.4473-1-1v-3h-2v10h2v-3c0-.5527,.4478-1,1-1h4c.5522,0,1,.4473,1,1v7h7c.2651,0,.5195,.1055,.707,.293l3.707,3.707Z"/></g><g id="t"/><g id="u"/><g id="v"/><g id="w"/><g id="x"/><g id="y"/><g id="a`"/><g id="aa"/><g id="ab"/><g id="ac"/><g id="ad"/><g id="ae"/><g id="af"/></svg>