<?xml version="1.0" encoding="UTF-8"?><svg xmlns="http://www.w3.org/2000/svg" viewBox="0 0 64 64"><g id="a"/><g id="b"/><g id="c"/><g id="d"><g><path d="M32,60c-15.4395,0-28-12.5605-28-28S16.5605,4,32,4s28,12.5605,28,28-12.5605,28-28,28Zm0-54c-14.3364,0-26,11.6636-26,26s11.6636,26,26,26,26-11.6636,26-26S46.3369,6,32,6Z"/><path d="M13,31h-4v2h4c.5522,0,1-.4478,1-1s-.4478-1-1-1Z"/><path d="M31,13c0,.5522,.4478,1,1,1s1-.4478,1-1v-4h-2v4Z"/><path d="M55,31h-4c-.5527,0-1,.4478-1,1s.4473,1,1,1h4v-2Z"/><path d="M16.4434,15.0293c-.0359-.0359-.0819-.0514-.1215-.0807-.4503,.4528-.9099,.9193-1.3654,1.385,.027,.0355,.0405,.0773,.0729,.1097l1.4146,1.4146c.1953,.1953,.4512,.293,.707,.293s.5117-.0977,.707-.293c.3906-.3906,.3906-1.0234,0-1.4141l-1.4146-1.4146Z"/><path d="M47.6782,14.9486c-.0396,.0293-.0856,.0448-.1215,.0807l-1.4141,1.4146c-.3906,.3906-.3906,1.0239,0,1.4141,.1953,.1953,.4512,.293,.707,.293s.5117-.0977,.707-.293l1.4141-1.4146c.0324-.0324,.0458-.0743,.0729-.1097-.4556-.4658-.9152-.9323-1.3654-1.385Z"/><path d="M15.7363,49.2637c-.2559,0-.5117-.0977-.707-.293-.0259-.0259-.0498-.0527-.0723-.0801-4.4873-4.5264-6.957-10.52-6.957-16.8906,0-13.2339,10.7666-24,24-24s24,10.7661,24,24c0,6.3706-2.4697,12.3643-6.957,16.8906-.0225,.0273-.0469,.0542-.0723,.0801-.3906,.3906-1.0234,.3906-1.4141,0h0l-1.4141-1.4146c-.3906-.3906-.3906-1.0239,0-1.4141,.3906-.3906,1.0234-.3906,1.4141,0l.6875,.6875c3.7197-4.064,5.7559-9.2915,5.7559-14.8296,0-12.1309-9.8691-22-22-22S10,19.8691,10,32c0,5.5381,2.0366,10.7656,5.7559,14.8301l.688-.688c.3906-.3906,1.0234-.3906,1.4141,0s.3906,1.0234,0,1.4141l-1.4082,1.4082-.0049,.0049-.0015,.0015c-.1953,.1953-.4512,.293-.707,.293Z"/><path d="M44.7275,19.272c-.3906-.3906-1.0234-.3906-1.4141,0l-10.6064,10.6069c-.0627,.0627-.0984,.1392-.141,.2123,.6463,.1918,1.1509,.6964,1.3427,1.3427,.0731-.0425,.1497-.0783,.2123-.141l10.6064-10.6069c.3906-.3906,.3906-1.0234,0-1.4141Z"/><path d="M32,35c-1.6543,0-3-1.3457-3-3s1.3457-3,3-3,3,1.3457,3,3-1.3457,3-3,3Zm0-4c-.5513,0-1,.4487-1,1s.4487,1,1,1,1-.4487,1-1-.4487-1-1-1Z"/><path d="M40,52H24c-.5522,0-1-.4478-1-1v-4c0-.5522,.4478-1,1-1h16c.5527,0,1,.4478,1,1v4c0,.5522-.4473,1-1,1Zm-15-2h14v-2h-14v2Z"/></g></g><g id="e"/><g id="f"/><g id="g"/><g id="h"/><g id="i"/><g id="j"/><g id="k"/><g id="l"/><g id="m"/><g id="n"/><g id="o"/><g id="p"/><g id="q"/><g id="r"/><g id="s"/><g id="t"/><g id="u"/><g id="v"/><g id="w"/><g id="x"/><g id="y"/><g id="a`"/><g id="aa"/><g id="ab"/><g id="ac"/><g id="ad"/><g id="ae"/><g id="af"/></svg>