<?xml version="1.0" encoding="UTF-8"?><svg xmlns="http://www.w3.org/2000/svg" viewBox="0 0 64 64"><g id="a"/><g id="b"/><g id="c"/><g id="d"/><g id="e"/><g id="f"/><g id="g"/><g id="h"/><g id="i"/><g id="j"/><g id="k"/><g id="l"/><g id="m"><g><path d="M35,44h-6c-.2729,0-.5342-.1118-.7231-.3091-.1885-.1973-.2881-.4634-.2759-.7363l1-22c.0244-.5342,.4644-.9546,.999-.9546h4c.5347,0,.9746,.4204,.999,.9546l1,22c.0122,.2729-.0874,.5391-.2759,.7363-.189,.1973-.4502,.3091-.7231,.3091Zm-4.9536-2h3.9072l-.9092-20h-2.0889l-.9092,20Z"/><path d="M41,48H23c-.5522,0-1-.4478-1-1v-4c0-.5522,.4478-1,1-1h18c.5522,0,1,.4478,1,1v4c0,.5522-.4478,1-1,1Zm-17-2h16v-2H24v2Z"/><path d="M43,52H21c-.5522,0-1-.4478-1-1v-4c0-.5522,.4478-1,1-1h22c.5522,0,1,.4478,1,1v4c0,.5522-.4478,1-1,1Zm-21-2h20v-2H22v2Z"/><path d="M45,56H19c-.5522,0-1-.4478-1-1v-4c0-.5522,.4478-1,1-1h26c.5522,0,1,.4478,1,1v4c0,.5522-.4478,1-1,1Zm-25-2h24v-2H20v2Z"/><path d="M47,60H17c-.5522,0-1-.4478-1-1v-4c0-.5522,.4478-1,1-1h30c.5522,0,1,.4478,1,1v4c0,.5522-.4478,1-1,1Zm-29-2h28v-2H18v2Z"/><path d="M33.7631,5c-.0056,.0266-.0219,.0479-.0253,.0752l-.6196,4.9248h-2.2363l-.6196-4.9248c-.0034-.0274-.0198-.0486-.0253-.0752h-1.9349c-.0219,.1052-.0383,.2127-.0242,.3252l.73,5.7998c.063,.5,.4883,.875,.9922,.875h4c.5039,0,.9292-.375,.9922-.875l.73-5.7998c.0142-.1125-.0023-.22-.0242-.3252h-1.9349Z"/><path d="M35.2344,22h-6.4688c-1.5098,0-2.7896-1.1299-2.9766-2.6279l-1.0786-8.6279c-.2134-1.707,.3169-3.4253,1.4556-4.7148,1.1382-1.2896,2.7778-2.0293,4.498-2.0293h2.6719c1.7202,0,3.3599,.7397,4.498,2.0293,1.1387,1.2896,1.6689,3.0078,1.4556,4.7148l-1.0786,8.6279c-.187,1.498-1.4668,2.6279-2.9766,2.6279ZM30.6641,6c-1.147,0-2.2397,.4932-2.999,1.3525-.7588,.8599-1.1123,2.0054-.9702,3.1436l1.0786,8.6279c.0625,.4995,.4888,.876,.9922,.876h6.4688c.5034,0,.9297-.3765,.9922-.876l1.0786-8.6279c.1421-1.1382-.2114-2.2837-.9702-3.1436-.7593-.8594-1.8521-1.3525-2.999-1.3525h-2.6719Z"/></g></g><g id="n"/><g id="o"/><g id="p"/><g id="q"/><g id="r"/><g id="s"/><g id="t"/><g id="u"/><g id="v"/><g id="w"/><g id="x"/><g id="y"/><g id="a`"/><g id="aa"/><g id="ab"/><g id="ac"/><g id="ad"/><g id="ae"/><g id="af"/></svg>